<svg width="151" height="159" viewBox="0 0 151 159" fill="none" xmlns="http://www.w3.org/2000/svg">
<path d="M111.263 15.9C106.874 15.9 103.316 12.3407 103.316 7.95C103.316 3.55934 106.874 0 111.263 0H143.053C147.442 0 151 3.55934 151 7.95V39.75C151 44.1407 147.442 47.7 143.053 47.7C138.663 47.7 135.105 44.1407 135.105 39.75V27.143L89.067 73.1965C85.9634 76.3012 80.9314 76.3012 77.8277 73.1965L55.6316 50.993L13.567 93.0715C10.4634 96.1762 5.43137 96.1762 2.32773 93.0715C-0.77591 89.9668 -0.77591 84.9332 2.32773 81.8285L50.0119 34.1285C51.5024 32.6376 53.5238 31.8 55.6316 31.8C57.7394 31.8 59.7608 32.6376 61.2512 34.1285L83.4474 56.332L123.866 15.9H111.263ZM15.8947 127.2V151.05C15.8947 155.441 12.3366 159 7.94737 159C3.55816 159 3.55275e-07 155.441 3.55275e-07 151.05V127.2C3.55275e-07 122.809 3.55816 119.25 7.94737 119.25C12.3366 119.25 15.8947 122.809 15.8947 127.2ZM55.6316 95.4C55.6316 91.0093 52.0734 87.45 47.6842 87.45C43.295 87.45 39.7368 91.0093 39.7368 95.4V151.05C39.7368 155.441 43.295 159 47.6842 159C52.0734 159 55.6316 155.441 55.6316 151.05V95.4ZM87.4211 103.35C91.8103 103.35 95.3684 106.909 95.3684 111.3V151.05C95.3684 155.441 91.8103 159 87.4211 159C83.0318 159 79.4737 155.441 79.4737 151.05V111.3C79.4737 106.909 83.0318 103.35 87.4211 103.35ZM135.105 71.55C135.105 67.1593 131.547 63.6 127.158 63.6C122.769 63.6 119.211 67.1593 119.211 71.55V151.05C119.211 155.441 122.769 159 127.158 159C131.547 159 135.105 155.441 135.105 151.05V71.55Z" fill="#BB86FC"/>
</svg>
